<?xml version="1.0" encoding="UTF-8" standalone="no"?>
<!-- Generator: Gravit.io -->
<svg xmlns="http://www.w3.org/2000/svg" xmlns:xlink="http://www.w3.org/1999/xlink" style="isolation:isolate" viewBox="4 7 164 65.367" width="164pt" height="65.367pt"><path d=" M 36.742 40.844 L 36.742 40.844 L 36.742 40.844 Q 36.742 49.305 31.926 53.805 L 31.926 53.805 L 31.926 53.805 Q 27.109 58.305 18.016 58.305 L 18.016 58.305 L 8.313 58.305 L 8.313 24.039 L 19.07 24.039 L 19.07 24.039 Q 27.461 24.039 32.102 28.469 L 32.102 28.469 L 32.102 28.469 Q 36.742 32.898 36.742 40.844 Z  M 29.195 41.031 L 29.195 41.031 L 29.195 41.031 Q 29.195 29.992 19.445 29.992 L 19.445 29.992 L 15.578 29.992 L 15.578 52.305 L 18.695 52.305 L 18.695 52.305 Q 29.195 52.305 29.195 41.031 Z " fill="rgb(255,0,0)"/><path d=" M 57.063 30.086 L 57.063 58.305 L 49.797 58.305 L 49.797 30.086 L 40.492 30.086 L 40.492 24.039 L 66.367 24.039 L 66.367 30.086 L 57.063 30.086 L 57.063 30.086 Z  M 76.773 45.156 L 76.773 45.156 L 76.773 45.156 Q 76.773 49.047 78.051 51.039 L 78.051 51.039 L 78.051 51.039 Q 79.328 53.031 82.211 53.031 L 82.211 53.031 L 82.211 53.031 Q 85.07 53.031 86.324 51.051 L 86.324 51.051 L 86.324 51.051 Q 87.578 49.07 87.578 45.156 L 87.578 45.156 L 87.578 45.156 Q 87.578 41.266 86.313 39.32 L 86.313 39.32 L 86.313 39.32 Q 85.047 37.375 82.164 37.375 L 82.164 37.375 L 82.164 37.375 Q 79.305 37.375 78.039 39.309 L 78.039 39.309 L 78.039 39.309 Q 76.773 41.242 76.773 45.156 Z  M 94.891 45.156 L 94.891 45.156 L 94.891 45.156 Q 94.891 51.555 91.516 55.164 L 91.516 55.164 L 91.516 55.164 Q 88.141 58.773 82.117 58.773 L 82.117 58.773 L 82.117 58.773 Q 78.344 58.773 75.461 57.121 L 75.461 57.121 L 75.461 57.121 Q 72.578 55.469 71.031 52.375 L 71.031 52.375 L 71.031 52.375 Q 69.484 49.281 69.484 45.156 L 69.484 45.156 L 69.484 45.156 Q 69.484 38.734 72.836 35.172 L 72.836 35.172 L 72.836 35.172 Q 76.188 31.609 82.258 31.609 L 82.258 31.609 L 82.258 31.609 Q 86.031 31.609 88.914 33.25 L 88.914 33.25 L 88.914 33.25 Q 91.797 34.891 93.344 37.961 L 93.344 37.961 L 93.344 37.961 Q 94.891 41.031 94.891 45.156 Z  M 106.492 45.156 L 106.492 45.156 L 106.492 45.156 Q 106.492 49.047 107.77 51.039 L 107.77 51.039 L 107.77 51.039 Q 109.047 53.031 111.93 53.031 L 111.93 53.031 L 111.93 53.031 Q 114.789 53.031 116.043 51.051 L 116.043 51.051 L 116.043 51.051 Q 117.297 49.07 117.297 45.156 L 117.297 45.156 L 117.297 45.156 Q 117.297 41.266 116.031 39.32 L 116.031 39.32 L 116.031 39.32 Q 114.766 37.375 111.883 37.375 L 111.883 37.375 L 111.883 37.375 Q 109.023 37.375 107.758 39.309 L 107.758 39.309 L 107.758 39.309 Q 106.492 41.242 106.492 45.156 Z  M 124.609 45.156 L 124.609 45.156 L 124.609 45.156 Q 124.609 51.555 121.234 55.164 L 121.234 55.164 L 121.234 55.164 Q 117.859 58.773 111.836 58.773 L 111.836 58.773 L 111.836 58.773 Q 108.063 58.773 105.18 57.121 L 105.18 57.121 L 105.18 57.121 Q 102.297 55.469 100.75 52.375 L 100.75 52.375 L 100.75 52.375 Q 99.203 49.281 99.203 45.156 L 99.203 45.156 L 99.203 45.156 Q 99.203 38.734 102.555 35.172 L 102.555 35.172 L 102.555 35.172 Q 105.906 31.609 111.977 31.609 L 111.977 31.609 L 111.977 31.609 Q 115.75 31.609 118.633 33.25 L 118.633 33.25 L 118.633 33.25 Q 121.516 34.891 123.063 37.961 L 123.063 37.961 L 123.063 37.961 Q 124.609 41.031 124.609 45.156 Z  M 137.664 21.836 L 137.664 58.305 L 130.516 58.305 L 130.516 21.836 L 137.664 21.836 L 137.664 21.836 Z  M 163.445 50.523 L 163.445 50.523 L 163.445 50.523 Q 163.445 54.555 160.645 56.664 L 160.645 56.664 L 160.645 56.664 Q 157.844 58.773 152.266 58.773 L 152.266 58.773 L 152.266 58.773 Q 149.406 58.773 147.391 58.387 L 147.391 58.387 L 147.391 58.387 Q 145.375 58 143.617 57.25 L 143.617 57.25 L 143.617 51.344 L 143.617 51.344 Q 145.609 52.281 148.105 52.914 L 148.105 52.914 L 148.105 52.914 Q 150.602 53.547 152.5 53.547 L 152.5 53.547 L 152.5 53.547 Q 156.391 53.547 156.391 51.297 L 156.391 51.297 L 156.391 51.297 Q 156.391 50.453 155.875 49.926 L 155.875 49.926 L 155.875 49.926 Q 155.359 49.398 154.094 48.73 L 154.094 48.73 L 154.094 48.73 Q 152.828 48.063 150.719 47.172 L 150.719 47.172 L 150.719 47.172 Q 147.695 45.906 146.277 44.828 L 146.277 44.828 L 146.277 44.828 Q 144.859 43.75 144.215 42.355 L 144.215 42.355 L 144.215 42.355 Q 143.57 40.961 143.57 38.922 L 143.57 38.922 L 143.57 38.922 Q 143.57 35.43 146.277 33.52 L 146.277 33.52 L 146.277 33.52 Q 148.984 31.609 153.953 31.609 L 153.953 31.609 L 153.953 31.609 Q 158.688 31.609 163.164 33.672 L 163.164 33.672 L 161.008 38.828 L 161.008 38.828 Q 159.039 37.984 157.328 37.445 L 157.328 37.445 L 157.328 37.445 Q 155.617 36.906 153.836 36.906 L 153.836 36.906 L 153.836 36.906 Q 150.672 36.906 150.672 38.617 L 150.672 38.617 L 150.672 38.617 Q 150.672 39.578 151.691 40.281 L 151.691 40.281 L 151.691 40.281 Q 152.711 40.984 156.156 42.367 L 156.156 42.367 L 156.156 42.367 Q 159.227 43.609 160.656 44.688 L 160.656 44.688 L 160.656 44.688 Q 162.086 45.766 162.766 47.172 L 162.766 47.172 L 162.766 47.172 Q 163.445 48.578 163.445 50.523 Z " fill="rgb(0,0,0)"/></svg>