<?xml version="1.0" encoding="UTF-8" standalone="no"?>
<!-- Generator: Gravit.io -->
<svg xmlns="http://www.w3.org/2000/svg" xmlns:xlink="http://www.w3.org/1999/xlink" style="isolation:isolate" viewBox="411 215 290 62.4" width="290pt" height="62.4pt"><path d=" M 431.4 264.2 L 431.4 260.168 L 431.208 260.168 L 431.208 260.168 Q 428.808 264.776 423.576 264.776 L 423.576 264.776 L 423.576 264.776 Q 419.016 264.776 416.448 261.368 L 416.448 261.368 L 416.448 261.368 Q 413.88 257.96 413.88 251.816 L 413.88 251.816 L 413.88 251.816 Q 413.88 245.672 416.448 242.264 L 416.448 242.264 L 416.448 242.264 Q 419.016 238.856 423.576 238.856 L 423.576 238.856 L 423.576 238.856 Q 428.808 238.856 431.208 243.464 L 431.208 243.464 L 431.4 243.464 L 431.4 228.68 L 435.24 228.68 L 435.24 264.2 L 431.4 264.2 L 431.4 264.2 Z  M 425.064 261.368 L 425.064 261.368 L 425.064 261.368 Q 426.36 261.368 427.512 261.032 L 427.512 261.032 L 427.512 261.032 Q 428.664 260.696 429.528 260.048 L 429.528 260.048 L 429.528 260.048 Q 430.392 259.4 430.896 258.464 L 430.896 258.464 L 430.896 258.464 Q 431.4 257.528 431.4 256.28 L 431.4 256.28 L 431.4 247.352 L 431.4 247.352 Q 431.4 246.104 430.896 245.168 L 430.896 245.168 L 430.896 245.168 Q 430.392 244.232 429.528 243.584 L 429.528 243.584 L 429.528 243.584 Q 428.664 242.936 427.512 242.6 L 427.512 242.6 L 427.512 242.6 Q 426.36 242.264 425.064 242.264 L 425.064 242.264 L 425.064 242.264 Q 421.704 242.264 419.856 244.304 L 419.856 244.304 L 419.856 244.304 Q 418.008 246.344 418.008 249.704 L 418.008 249.704 L 418.008 253.928 L 418.008 253.928 Q 418.008 257.288 419.856 259.328 L 419.856 259.328 L 419.856 259.328 Q 421.704 261.368 425.064 261.368 Z  M 466.2 264.2 L 463.56 264.2 L 463.56 264.2 Q 461.304 264.2 460.344 263.048 L 460.344 263.048 L 460.344 263.048 Q 459.384 261.896 459.144 260.168 L 459.144 260.168 L 458.904 260.168 L 458.904 260.168 Q 458.088 262.328 456.288 263.552 L 456.288 263.552 L 456.288 263.552 Q 454.488 264.776 451.464 264.776 L 451.464 264.776 L 451.464 264.776 Q 447.576 264.776 445.272 262.76 L 445.272 262.76 L 445.272 262.76 Q 442.968 260.744 442.968 257.24 L 442.968 257.24 L 442.968 257.24 Q 442.968 253.784 445.488 251.912 L 445.488 251.912 L 445.488 251.912 Q 448.008 250.04 453.624 250.04 L 453.624 250.04 L 458.904 250.04 L 458.904 247.607 L 458.904 247.607 Q 458.904 244.887 457.368 243.528 L 457.368 243.528 L 457.368 243.528 Q 455.832 242.168 453 242.168 L 453 242.168 L 453 242.168 Q 450.504 242.168 448.92 243.145 L 448.92 243.145 L 448.92 243.145 Q 447.336 244.123 446.376 245.799 L 446.376 245.799 L 443.784 243.884 L 443.784 243.884 Q 444.264 242.928 445.08 242.012 L 445.08 242.012 L 445.08 242.012 Q 445.896 241.096 447.096 240.39 L 447.096 240.39 L 447.096 240.39 Q 448.296 239.684 449.832 239.27 L 449.832 239.27 L 449.832 239.27 Q 451.368 238.856 453.24 238.856 L 453.24 238.856 L 453.24 238.856 Q 457.608 238.856 460.176 241.069 L 460.176 241.069 L 460.176 241.069 Q 462.744 243.282 462.744 247.226 L 462.744 247.226 L 462.744 260.888 L 466.2 260.888 L 466.2 264.2 L 466.2 264.2 Z  M 452.136 261.56 L 452.136 261.56 L 452.136 261.56 Q 453.624 261.56 454.848 261.2 L 454.848 261.2 L 454.848 261.2 Q 456.072 260.84 456.984 260.24 L 456.984 260.24 L 456.984 260.24 Q 457.896 259.64 458.4 258.8 L 458.4 258.8 L 458.4 258.8 Q 458.904 257.96 458.904 257 L 458.904 257 L 458.904 252.92 L 453.624 252.92 L 453.624 252.92 Q 450.168 252.92 448.584 253.88 L 448.584 253.88 L 448.584 253.88 Q 447 254.84 447 256.664 L 447 256.664 L 447 257.672 L 447 257.672 Q 447 259.592 448.368 260.576 L 448.368 260.576 L 448.368 260.576 Q 449.736 261.56 452.136 261.56 Z  M 472.296 264.2 L 472.296 260.888 L 479.544 260.888 L 479.544 242.744 L 472.296 242.744 L 472.296 239.432 L 483.384 239.432 L 483.384 245.672 L 483.624 245.672 L 483.624 245.672 Q 484.392 242.744 486.528 241.088 L 486.528 241.088 L 486.528 241.088 Q 488.664 239.432 491.976 239.432 L 491.976 239.432 L 495.432 239.432 L 495.432 243.272 L 490.776 243.272 L 490.776 243.272 Q 487.464 243.272 485.424 245.187 L 485.424 245.187 L 485.424 245.187 Q 483.384 247.102 483.384 250.213 L 483.384 250.213 L 483.384 260.888 L 492.984 260.888 L 492.984 264.2 L 472.296 264.2 L 472.296 264.2 Z  M 522.648 264.2 L 513 264.2 L 513 264.2 Q 510.168 264.2 508.848 262.62 L 508.848 262.62 L 508.848 262.62 Q 507.528 261.039 507.528 258.549 L 507.528 258.549 L 507.528 242.744 L 499.272 242.744 L 499.272 239.432 L 505.416 239.432 L 505.416 239.432 Q 506.664 239.432 507.168 238.928 L 507.168 238.928 L 507.168 238.928 Q 507.672 238.424 507.672 237.176 L 507.672 237.176 L 507.672 230.696 L 511.368 230.696 L 511.368 239.432 L 522.648 239.432 L 522.648 242.744 L 511.368 242.744 L 511.368 260.888 L 522.648 260.888 L 522.648 264.2 L 522.648 264.2 Z  M 540.6 264.632 L 540.6 264.632 L 540.6 264.632 Q 538.632 264.632 537.84 263.816 L 537.84 263.816 L 537.84 263.816 Q 537.048 263 537.048 261.752 L 537.048 261.752 L 537.048 260.888 L 537.048 260.888 Q 537.048 259.64 537.84 258.824 L 537.84 258.824 L 537.84 258.824 Q 538.632 258.008 540.6 258.008 L 540.6 258.008 L 540.6 258.008 Q 542.568 258.008 543.36 258.824 L 543.36 258.824 L 543.36 258.824 Q 544.152 259.64 544.152 260.888 L 544.152 260.888 L 544.152 261.752 L 544.152 261.752 Q 544.152 263 543.36 263.816 L 543.36 263.816 L 543.36 263.816 Q 542.568 264.632 540.6 264.632 Z " fill="rgb(0,0,0)"/><path d=" M 580.248 264.2 L 570.6 264.2 L 570.6 264.2 Q 567.768 264.2 566.448 262.62 L 566.448 262.62 L 566.448 262.62 Q 565.128 261.039 565.128 258.549 L 565.128 258.549 L 565.128 242.744 L 556.872 242.744 L 556.872 239.432 L 563.016 239.432 L 563.016 239.432 Q 564.264 239.432 564.768 238.928 L 564.768 238.928 L 564.768 238.928 Q 565.272 238.424 565.272 237.176 L 565.272 237.176 L 565.272 230.696 L 568.968 230.696 L 568.968 239.432 L 580.248 239.432 L 580.248 242.744 L 568.968 242.744 L 568.968 260.888 L 580.248 260.888 L 580.248 264.2 L 580.248 264.2 Z  M 598.2 264.776 L 598.2 264.776 L 598.2 264.776 Q 595.608 264.776 593.52 263.864 L 593.52 263.864 L 593.52 263.864 Q 591.432 262.952 589.968 261.248 L 589.968 261.248 L 589.968 261.248 Q 588.504 259.544 587.736 257.168 L 587.736 257.168 L 587.736 257.168 Q 586.968 254.792 586.968 251.816 L 586.968 251.816 L 586.968 251.816 Q 586.968 248.888 587.736 246.488 L 587.736 246.488 L 587.736 246.488 Q 588.504 244.088 589.968 242.384 L 589.968 242.384 L 589.968 242.384 Q 591.432 240.68 593.52 239.768 L 593.52 239.768 L 593.52 239.768 Q 595.608 238.856 598.2 238.856 L 598.2 238.856 L 598.2 238.856 Q 600.792 238.856 602.88 239.768 L 602.88 239.768 L 602.88 239.768 Q 604.968 240.68 606.432 242.384 L 606.432 242.384 L 606.432 242.384 Q 607.896 244.088 608.664 246.488 L 608.664 246.488 L 608.664 246.488 Q 609.432 248.888 609.432 251.816 L 609.432 251.816 L 609.432 251.816 Q 609.432 254.792 608.664 257.168 L 608.664 257.168 L 608.664 257.168 Q 607.896 259.544 606.432 261.248 L 606.432 261.248 L 606.432 261.248 Q 604.968 262.952 602.88 263.864 L 602.88 263.864 L 602.88 263.864 Q 600.792 264.776 598.2 264.776 Z  M 598.2 261.464 L 598.2 261.464 L 598.2 261.464 Q 601.416 261.464 603.384 259.544 L 603.384 259.544 L 603.384 259.544 Q 605.352 257.624 605.352 253.592 L 605.352 253.592 L 605.352 250.04 L 605.352 250.04 Q 605.352 246.008 603.384 244.088 L 603.384 244.088 L 603.384 244.088 Q 601.416 242.168 598.2 242.168 L 598.2 242.168 L 598.2 242.168 Q 594.984 242.168 593.016 244.088 L 593.016 244.088 L 593.016 244.088 Q 591.048 246.008 591.048 250.04 L 591.048 250.04 L 591.048 253.592 L 591.048 253.592 Q 591.048 257.624 593.016 259.544 L 593.016 259.544 L 593.016 259.544 Q 594.984 261.464 598.2 261.464 Z  M 627 264.776 L 627 264.776 L 627 264.776 Q 624.408 264.776 622.32 263.864 L 622.32 263.864 L 622.32 263.864 Q 620.232 262.952 618.768 261.248 L 618.768 261.248 L 618.768 261.248 Q 617.304 259.544 616.536 257.168 L 616.536 257.168 L 616.536 257.168 Q 615.768 254.792 615.768 251.816 L 615.768 251.816 L 615.768 251.816 Q 615.768 248.888 616.536 246.488 L 616.536 246.488 L 616.536 246.488 Q 617.304 244.088 618.768 242.384 L 618.768 242.384 L 618.768 242.384 Q 620.232 240.68 622.32 239.768 L 622.32 239.768 L 622.32 239.768 Q 624.408 238.856 627 238.856 L 627 238.856 L 627 238.856 Q 629.592 238.856 631.68 239.768 L 631.68 239.768 L 631.68 239.768 Q 633.768 240.68 635.232 242.384 L 635.232 242.384 L 635.232 242.384 Q 636.696 244.088 637.464 246.488 L 637.464 246.488 L 637.464 246.488 Q 638.232 248.888 638.232 251.816 L 638.232 251.816 L 638.232 251.816 Q 638.232 254.792 637.464 257.168 L 637.464 257.168 L 637.464 257.168 Q 636.696 259.544 635.232 261.248 L 635.232 261.248 L 635.232 261.248 Q 633.768 262.952 631.68 263.864 L 631.68 263.864 L 631.68 263.864 Q 629.592 264.776 627 264.776 Z  M 627 261.464 L 627 261.464 L 627 261.464 Q 630.216 261.464 632.184 259.544 L 632.184 259.544 L 632.184 259.544 Q 634.152 257.624 634.152 253.592 L 634.152 253.592 L 634.152 250.04 L 634.152 250.04 Q 634.152 246.008 632.184 244.088 L 632.184 244.088 L 632.184 244.088 Q 630.216 242.168 627 242.168 L 627 242.168 L 627 242.168 Q 623.784 242.168 621.816 244.088 L 621.816 244.088 L 621.816 244.088 Q 619.848 246.008 619.848 250.04 L 619.848 250.04 L 619.848 253.592 L 619.848 253.592 Q 619.848 257.624 621.816 259.544 L 621.816 259.544 L 621.816 259.544 Q 623.784 261.464 627 261.464 Z  M 645.24 264.2 L 645.24 260.888 L 653.88 260.888 L 653.88 231.992 L 645.24 231.992 L 645.24 228.68 L 657.72 228.68 L 657.72 260.888 L 666.36 260.888 L 666.36 264.2 L 645.24 264.2 L 645.24 264.2 Z  M 684.888 264.776 L 684.888 264.776 L 684.888 264.776 Q 681 264.776 678.192 263.456 L 678.192 263.456 L 678.192 263.456 Q 675.384 262.136 673.416 259.928 L 673.416 259.928 L 676.008 257.672 L 676.008 257.672 Q 677.784 259.544 679.896 260.552 L 679.896 260.552 L 679.896 260.552 Q 682.008 261.56 684.984 261.56 L 684.984 261.56 L 684.984 261.56 Q 687.864 261.56 689.712 260.528 L 689.712 260.528 L 689.712 260.528 Q 691.56 259.496 691.56 257.288 L 691.56 257.288 L 691.56 257.288 Q 691.56 256.328 691.2 255.68 L 691.2 255.68 L 691.2 255.68 Q 690.84 255.032 690.216 254.648 L 690.216 254.648 L 690.216 254.648 Q 689.592 254.264 688.824 254.048 L 688.824 254.048 L 688.824 254.048 Q 688.056 253.832 687.192 253.688 L 687.192 253.688 L 683.304 253.112 L 683.304 253.112 Q 682.008 252.92 680.496 252.584 L 680.496 252.584 L 680.496 252.584 Q 678.984 252.248 677.736 251.504 L 677.736 251.504 L 677.736 251.504 Q 676.488 250.76 675.648 249.512 L 675.648 249.512 L 675.648 249.512 Q 674.808 248.264 674.808 246.248 L 674.808 246.248 L 674.808 246.248 Q 674.808 244.376 675.552 243.008 L 675.552 243.008 L 675.552 243.008 Q 676.296 241.64 677.64 240.704 L 677.64 240.704 L 677.64 240.704 Q 678.984 239.768 680.808 239.312 L 680.808 239.312 L 680.808 239.312 Q 682.632 238.856 684.792 238.856 L 684.792 238.856 L 684.792 238.856 Q 688.152 238.856 690.624 239.912 L 690.624 239.912 L 690.624 239.912 Q 693.096 240.968 694.872 242.84 L 694.872 242.84 L 692.376 245.192 L 692.376 245.192 Q 691.944 244.664 691.296 244.112 L 691.296 244.112 L 691.296 244.112 Q 690.648 243.56 689.712 243.104 L 689.712 243.104 L 689.712 243.104 Q 688.776 242.648 687.528 242.36 L 687.528 242.36 L 687.528 242.36 Q 686.28 242.072 684.648 242.072 L 684.648 242.072 L 684.648 242.072 Q 681.72 242.072 680.16 243.08 L 680.16 243.08 L 680.16 243.08 Q 678.6 244.088 678.6 246.008 L 678.6 246.008 L 678.6 246.008 Q 678.6 246.968 678.96 247.616 L 678.96 247.616 L 678.96 247.616 Q 679.32 248.264 679.944 248.648 L 679.944 248.648 L 679.944 248.648 Q 680.568 249.032 681.36 249.248 L 681.36 249.248 L 681.36 249.248 Q 682.152 249.464 682.968 249.608 L 682.968 249.608 L 686.856 250.184 L 686.856 250.184 Q 688.2 250.376 689.688 250.712 L 689.688 250.712 L 689.688 250.712 Q 691.176 251.048 692.424 251.792 L 692.424 251.792 L 692.424 251.792 Q 693.672 252.536 694.512 253.784 L 694.512 253.784 L 694.512 253.784 Q 695.352 255.032 695.352 257.048 L 695.352 257.048 L 695.352 257.048 Q 695.352 260.744 692.496 262.76 L 692.496 262.76 L 692.496 262.76 Q 689.64 264.776 684.888 264.776 Z " fill="rgb(139,139,139)"/></svg>